<?xml version="1.0" standalone="no"?>
<!DOCTYPE svg PUBLIC "-//W3C//DTD SVG 20010904//EN"
 "http://www.w3.org/TR/2001/REC-SVG-20010904/DTD/svg10.dtd">
<svg version="1.0" xmlns="http://www.w3.org/2000/svg"
 width="1024.000000pt" height="1024.000000pt" viewBox="0 0 1024.000000 1024.000000"
 preserveAspectRatio="xMidYMid meet">

<g transform="translate(0.000000,1024.000000) scale(0.100000,-0.100000)"
fill="#000000" stroke="none">
<path d="M2060 5890 c-101 -54 -192 -108 -202 -120 -15 -19 -18 -43 -18 -161
l0 -139 -92 0 c-174 0 -198 -31 -198 -247 0 -137 1 -143 23 -156 23 -15 155
-36 387 -62 74 -9 150 -18 168 -21 25 -4 32 -1 32 11 0 31 29 72 60 85 42 17
144 9 169 -15 12 -10 26 -32 32 -50 14 -37 -13 -37 244 -5 216 27 347 50 363
62 17 14 17 293 -1 327 -6 13 -25 34 -40 45 -25 19 -42 21 -139 20 l-110 -1 3
261 3 261 -26 3 c-24 3 -295 -131 -406 -202 -49 -31 -51 -31 -47 -8 2 9 6 61
9 115 5 87 4 97 -12 96 -9 0 -100 -44 -202 -99z m465 -300 c35 -33 55 -72 55
-110 l0 -30 -59 0 -60 0 -3 33 -3 32 -155 0 -155 0 -10 -32 -9 -33 -68 0 -67
0 24 48 c23 47 61 89 100 111 13 7 80 10 202 9 178 -3 182 -3 208 -28z"/>
<path d="M3662 5323 c3 -297 3 -298 -20 -335 -50 -80 -154 -71 -192 17 l-19
45 -71 0 c-67 0 -70 -1 -70 -24 0 -41 30 -110 63 -144 48 -50 103 -74 179 -80
88 -6 147 11 202 59 73 64 76 83 76 446 l0 313 -76 0 -76 0 4 -297z"/>
<path d="M4530 5220 l0 -400 75 0 75 0 0 41 0 41 44 -39 c97 -85 214 -83 302
4 102 102 114 337 25 460 -42 58 -90 84 -165 90 -75 6 -125 -8 -172 -49 l-34
-30 0 141 0 141 -75 0 -75 0 0 -400z m369 53 c42 -31 61 -80 61 -156 0 -114
-53 -187 -134 -187 -51 0 -100 29 -122 72 -10 18 -19 65 -22 104 -8 129 47
200 147 190 24 -2 55 -12 70 -23z"/>
<path d="M5190 5220 l0 -400 73 0 72 0 -3 165 -3 165 162 2 162 3 0 60 0 60
-162 3 -161 2 0 110 0 110 185 0 185 0 0 60 0 60 -255 0 -255 0 0 -400z"/>
<path d="M6960 5495 l0 -85 -40 0 -40 0 0 -55 0 -55 40 0 40 0 0 -185 c0 -201
6 -230 54 -275 25 -23 35 -25 119 -25 l92 0 3 62 3 61 -40 -5 c-28 -4 -48 -1
-66 11 l-25 16 0 170 0 170 65 0 65 0 0 55 0 55 -65 0 -65 0 0 85 0 85 -70 0
-70 0 0 -85z"/>
<path d="M5900 5419 c-90 -18 -155 -78 -174 -161 l-6 -28 70 0 c65 0 71 2 80
24 14 37 49 56 103 56 42 0 54 -5 83 -34 26 -26 34 -43 34 -69 l0 -34 -112 -7
c-179 -11 -233 -33 -263 -108 -19 -49 -19 -89 0 -135 20 -48 41 -71 85 -93 85
-42 186 -28 252 37 l38 37 0 -42 0 -42 73 0 72 0 -1 218 c0 207 -1 220 -24
266 -27 57 -87 99 -161 115 -57 12 -86 12 -149 0z m190 -359 c0 -84 -56 -140
-139 -140 -65 0 -101 30 -101 83 0 61 47 85 168 86 l72 1 0 -30z"/>
<path d="M4063 5404 c-60 -22 -126 -84 -154 -146 -35 -79 -34 -212 2 -288 53
-114 134 -164 264 -165 144 0 236 66 277 198 51 169 -19 345 -158 397 -65 24
-168 26 -231 4z m183 -113 c49 -30 69 -82 69 -181 0 -67 -4 -92 -20 -119 -30
-50 -66 -73 -119 -75 -85 -2 -136 61 -144 178 -8 132 47 216 142 216 23 0 55
-9 72 -19z"/>
<path d="M6477 5406 c-123 -44 -187 -146 -187 -297 0 -173 102 -291 265 -306
134 -12 240 56 276 179 l8 28 -73 0 -72 0 -17 -36 c-43 -90 -182 -76 -223 22
-21 50 -18 189 5 241 45 97 187 97 222 -1 l13 -36 73 0 73 0 -6 28 c-19 80
-91 162 -160 181 -53 15 -151 13 -197 -3z"/>
<path d="M7446 5400 c-125 -49 -195 -194 -167 -348 15 -83 39 -129 91 -176 61
-55 102 -69 195 -69 130 0 212 51 264 163 21 46 25 70 25 145 1 79 -3 98 -27
147 -52 105 -143 159 -271 158 -35 -1 -82 -9 -110 -20z m184 -105 c50 -26 75
-87 75 -185 0 -67 -4 -92 -20 -119 -30 -52 -67 -74 -120 -74 -92 0 -140 68
-140 198 0 94 21 147 69 176 37 23 96 24 136 4z"/>
<path d="M8140 5409 c-32 -13 -70 -49 -70 -66 0 -7 -4 -13 -9 -13 -5 0 -7 18
-4 40 l6 40 -74 0 -74 0 0 -295 0 -295 73 0 72 0 0 188 c0 128 4 195 13 211
20 39 59 62 120 68 l57 6 0 48 c0 26 3 54 6 63 5 13 -2 16 -42 15 -27 0 -60
-5 -74 -10z"/>
<path d="M8298 5393 c5 -10 53 -145 107 -301 104 -302 108 -327 60 -358 -14
-9 -42 -18 -63 -21 -37 -5 -40 -8 -46 -42 -13 -80 -12 -81 52 -81 64 1 123 19
154 47 35 32 68 110 184 442 63 178 114 325 114 327 0 2 -33 4 -73 4 l-72 0
-63 -207 c-35 -115 -63 -214 -62 -220 0 -7 -4 -13 -8 -13 -6 0 -35 97 -117
390 l-12 45 -82 3 c-76 3 -81 2 -73 -15z"/>
<path d="M2247 5004 c-11 -12 -8 -162 4 -169 6 -4 31 -4 55 0 l45 6 -3 82 -3
82 -45 3 c-25 2 -49 0 -53 -4z"/>
<path d="M1580 4749 c0 -254 3 -275 49 -306 24 -17 73 -18 657 -21 l630 -3 34
24 c57 38 60 49 60 301 l0 228 -22 -5 c-24 -6 -124 -18 -358 -42 -203 -22
-200 -21 -200 -56 0 -74 -53 -119 -140 -119 -86 0 -129 36 -130 106 0 49 14
44 -205 69 -77 9 -193 26 -257 39 l-118 23 0 -238z"/>
</g>
</svg>
